<svg width="136" height="41" viewBox="0 0 136 41" fill="none" xmlns="http://www.w3.org/2000/svg">
<path d="M4.12 5.225C3.75167 5.59333 3.29833 5.7775 2.76 5.7775C2.22167 5.7775 1.76833 5.59333 1.4 5.225C1.03167 4.85667 0.8475 4.40333 0.8475 3.865C0.8475 3.32666 1.03167 2.87333 1.4 2.505C1.76833 2.10833 2.22167 1.91 2.76 1.91C3.29833 1.91 3.75167 2.10833 4.12 2.505C4.48833 2.87333 4.6725 3.32666 4.6725 3.865C4.6725 4.40333 4.48833 4.85667 4.12 5.225ZM1.7825 32C1.41417 32 1.23 31.8017 1.23 31.405V11.77C1.23 11.3733 1.41417 11.175 1.7825 11.175H3.7375C4.10583 11.175 4.29 11.3733 4.29 11.77V31.405C4.29 31.8017 4.10583 32 3.7375 32H1.7825ZM11.4579 32C11.0896 32 10.9054 31.8017 10.9054 31.405V11.77C10.9054 11.3733 11.0896 11.175 11.4579 11.175H13.2429C13.6396 11.175 13.8379 11.3875 13.8379 11.8125L13.9654 14.49C15.3821 11.94 17.6771 10.665 20.8504 10.665C23.1737 10.665 25.0154 11.4017 26.3754 12.875C27.7637 14.3483 28.4579 16.445 28.4579 19.165V31.405C28.4579 31.8017 28.2737 32 27.9054 32H25.9079C25.5679 32 25.3979 31.8017 25.3979 31.405V19.4625C25.3979 17.5925 24.9162 16.1333 23.9529 15.085C23.0179 14.0367 21.7004 13.5125 20.0004 13.5125C18.2437 13.5125 16.7987 14.0508 15.6654 15.1275C14.5321 16.2042 13.9654 17.6492 13.9654 19.4625V31.405C13.9654 31.8017 13.7812 32 13.4129 32H11.4579ZM36.6571 32C36.2887 32 36.1046 31.8017 36.1046 31.405V13.725H33.5971C33.2004 13.725 33.0021 13.5267 33.0021 13.13V11.77C33.0021 11.3733 33.2004 11.175 33.5971 11.175H36.1046V6.4575C36.1046 2.77417 37.9179 0.9325 41.5446 0.9325C42.3662 0.9325 43.0462 1.04583 43.5846 1.2725C43.8396 1.38583 43.9671 1.57 43.9671 1.825V3.5675C43.9671 3.8225 43.7971 3.92167 43.4571 3.865C42.8904 3.78 42.4087 3.7375 42.0121 3.7375C40.9071 3.7375 40.1562 4.035 39.7596 4.63C39.3629 5.225 39.1646 6.06083 39.1646 7.1375V11.175H43.3721C43.7687 11.175 43.9671 11.3733 43.9671 11.77V13.13C43.9671 13.5267 43.7687 13.725 43.3721 13.725H39.1646V31.405C39.1646 31.8017 38.9804 32 38.6121 32H36.6571ZM52.1965 5.225C51.8281 5.59333 51.3748 5.7775 50.8365 5.7775C50.2981 5.7775 49.8448 5.59333 49.4765 5.225C49.1081 4.85667 48.924 4.40333 48.924 3.865C48.924 3.32666 49.1081 2.87333 49.4765 2.505C49.8448 2.10833 50.2981 1.91 50.8365 1.91C51.3748 1.91 51.8281 2.10833 52.1965 2.505C52.5648 2.87333 52.749 3.32666 52.749 3.865C52.749 4.40333 52.5648 4.85667 52.1965 5.225ZM49.859 32C49.4906 32 49.3065 31.8017 49.3065 31.405V11.77C49.3065 11.3733 49.4906 11.175 49.859 11.175H51.814C52.1823 11.175 52.3665 11.3733 52.3665 11.77V31.405C52.3665 31.8017 52.1823 32 51.814 32H49.859ZM59.5344 32C59.166 32 58.9819 31.8017 58.9819 31.405V11.77C58.9819 11.3733 59.166 11.175 59.5344 11.175H61.3194C61.716 11.175 61.9144 11.3875 61.9144 11.8125L62.0419 14.49C63.4585 11.94 65.7535 10.665 68.9269 10.665C71.2502 10.665 73.0919 11.4017 74.4519 12.875C75.8402 14.3483 76.5344 16.445 76.5344 19.165V31.405C76.5344 31.8017 76.3502 32 75.9819 32H73.9844C73.6444 32 73.4744 31.8017 73.4744 31.405V19.4625C73.4744 17.5925 72.9927 16.1333 72.0294 15.085C71.0944 14.0367 69.7769 13.5125 68.0769 13.5125C66.3202 13.5125 64.8752 14.0508 63.7419 15.1275C62.6085 16.2042 62.0419 17.6492 62.0419 19.4625V31.405C62.0419 31.8017 61.8577 32 61.4894 32H59.5344ZM86.0736 5.225C85.7053 5.59333 85.2519 5.7775 84.7136 5.7775C84.1753 5.7775 83.7219 5.59333 83.3536 5.225C82.9853 4.85667 82.8011 4.40333 82.8011 3.865C82.8011 3.32666 82.9853 2.87333 83.3536 2.505C83.7219 2.10833 84.1753 1.91 84.7136 1.91C85.2519 1.91 85.7053 2.10833 86.0736 2.505C86.4419 2.87333 86.6261 3.32666 86.6261 3.865C86.6261 4.40333 86.4419 4.85667 86.0736 5.225ZM83.7361 32C83.3678 32 83.1836 31.8017 83.1836 31.405V11.77C83.1836 11.3733 83.3678 11.175 83.7361 11.175H85.6911C86.0594 11.175 86.2436 11.3733 86.2436 11.77V31.405C86.2436 31.8017 86.0594 32 85.6911 32H83.7361ZM98.904 32.51C95.9573 32.51 94.484 31.0083 94.484 28.005V13.725H91.764C91.3673 13.725 91.169 13.5267 91.169 13.13V11.77C91.169 11.3733 91.3673 11.175 91.764 11.175H94.484V6.245C94.484 5.84833 94.6681 5.65 95.0365 5.65H96.9915C97.3598 5.65 97.544 5.84833 97.544 6.245V11.175H101.071C101.468 11.175 101.666 11.3733 101.666 11.77V13.13C101.666 13.5267 101.468 13.725 101.071 13.725H97.544V27.6225C97.544 29.0958 98.1815 29.8325 99.4565 29.8325C99.8248 29.8325 100.264 29.8042 100.774 29.7475C101.312 29.6625 101.581 29.8467 101.581 30.3V31.575C101.581 32.1983 100.689 32.51 98.904 32.51ZM111.351 40.075C110.869 40.075 110.727 39.8625 110.926 39.4375L113.858 32.085L105.868 11.8975C105.698 11.4158 105.854 11.175 106.336 11.175H108.291C108.602 11.175 108.829 11.345 108.971 11.685L115.388 28.6L121.848 11.685C121.962 11.345 122.188 11.175 122.528 11.175H124.483C124.965 11.175 125.121 11.4158 124.951 11.8975L113.986 39.565C113.844 39.905 113.603 40.075 113.263 40.075H111.351Z" fill="black"/>
<path d="M134.85 31.5325C134.17 32.2125 133.348 32.5525 132.385 32.5525C131.422 32.5525 130.6 32.2125 129.92 31.5325C129.24 30.8525 128.9 30.0308 128.9 29.0675C128.9 28.0758 129.24 27.24 129.92 26.56C130.6 25.8517 131.422 25.4975 132.385 25.4975C133.348 25.4975 134.17 25.8517 134.85 26.56C135.558 27.24 135.912 28.0758 135.912 29.0675C135.912 30.0308 135.558 30.8525 134.85 31.5325Z" fill="#4047FF"/>
</svg>
