<svg width="16" height="32" viewBox="0 0 16 32" fill="none" xmlns="http://www.w3.org/2000/svg">
<path d="M3.59432 4.225C3.22598 4.59333 2.77265 4.7775 2.23432 4.7775C1.69598 4.7775 1.24265 4.59333 0.874317 4.225C0.505983 3.85667 0.321817 3.40333 0.321817 2.865C0.321817 2.32666 0.505983 1.87333 0.874317 1.505C1.24265 1.10833 1.69598 0.91 2.23432 0.91C2.77265 0.91 3.22598 1.10833 3.59432 1.505C3.96265 1.87333 4.14682 2.32666 4.14682 2.865C4.14682 3.40333 3.96265 3.85667 3.59432 4.225ZM1.25682 31C0.888483 31 0.704317 30.8017 0.704317 30.405V10.77C0.704317 10.3733 0.888483 10.175 1.25682 10.175H3.21182C3.58015 10.175 3.76432 10.3733 3.76432 10.77V30.405C3.76432 30.8017 3.58015 31 3.21182 31H1.25682Z" fill="black"/>
<path d="M14.7997 30.5325C14.1197 31.2125 13.298 31.5525 12.3347 31.5525C11.3714 31.5525 10.5497 31.2125 9.86971 30.5325C9.18971 29.8525 8.84971 29.0308 8.84971 28.0675C8.84971 27.0758 9.18971 26.24 9.86971 25.56C10.5497 24.8517 11.3714 24.4975 12.3347 24.4975C13.298 24.4975 14.1197 24.8517 14.7997 25.56C15.508 26.24 15.8622 27.0758 15.8622 28.0675C15.8622 29.0308 15.508 29.8525 14.7997 30.5325Z" fill="#4047FF"/>
</svg>
