<svg id="Layer_2" data-name="Layer 2" xmlns="http://www.w3.org/2000/svg" xmlns:xlink="http://www.w3.org/1999/xlink"
    viewBox="0 0 1635.59 450.71">
    <defs>
        <style>
            .cls-1 {
                fill: url(#linear-gradient);
            }

            .cls-2 {
                fill: url(#linear-gradient-2);
            }

            .cls-3 {
                fill: #eeedee;
            }

            .cls-4 {
                clip-path: url(#clip-path);
            }

            .cls-5 {
                fill: url(#linear-gradient-4);
            }

            .cls-6 {
                clip-path: url(#clip-path-2);
            }

            .cls-7 {
                fill: url(#linear-gradient-6);
            }
        </style>
        <linearGradient id="linear-gradient" x1="38.94" y1="225.35" x2="1596.65" y2="225.35"
            gradientUnits="userSpaceOnUse">
            <stop offset="0.2" stop-color="#d2d4e0" />
            <stop offset="0.39" stop-color="#da98bd" />
            <stop offset="0.46" stop-color="#ab91c4" />
            <stop offset="0.56" stop-color="#56b9d6" />
            <stop offset="0.91" stop-color="#dfd9ec" />
        </linearGradient>
        <linearGradient id="linear-gradient-2" x1="1694.53" y1="225.35" x2="3252.24" y2="225.35"
            xlink:href="#linear-gradient" />
        <clipPath id="clip-path">
            <path class="cls-1"
                d="M683.56,147.16a111.22,111.22,0,0,0,0,157.28,116.62,116.62,0,0,0,23,18V129.17a117,117,0,0,0-23,18m356.69,175.32a117.21,117.21,0,0,0,23.09-18,111.24,111.24,0,0,0,0-157.3,117.21,117.21,0,0,0-23.09-18Zm-278-207.76-.09,0V336.9l.09,0v.1c25.65-.87,51.1-11.71,71.9-32.51h0L817.9,288.24V209.59l16.2,16.21,39.34,39.34,0,0,39.32,39.32h0C933.59,325.24,959,336.08,984.64,337v-.15l.16.08V114.67l-.16.08v-.1c-25.63.89-51,11.72-71.84,32.51h0L929,163.38V242L912.8,225.81l-39.34-39.34,0,0-39.32-39.33h0c-20.8-20.81-46.25-31.65-71.9-32.52Zm772.77-.51-49.92,83.35-49.44-83.35h-61.69l83.35,138.92v83.34h56V253.13l83.35-138.92ZM38.94,336.94H95V113.74h-56Z" />
        </clipPath>
        <linearGradient id="linear-gradient-4" x1="2218.4" y1="484.42" x2="2221.44" y2="484.42"
            gradientTransform="matrix(0, -592.59, -592.59, 0, 287879.42, 1315705.33)" xlink:href="#linear-gradient" />
        <clipPath id="clip-path-2">
            <path class="cls-2"
                d="M2339.16,147.16a111.2,111.2,0,0,0,0,157.28,116.56,116.56,0,0,0,23,18V129.17a116.94,116.94,0,0,0-23,18m356.68,175.32a117.21,117.21,0,0,0,23.09-18,111.24,111.24,0,0,0,0-157.3,117.21,117.21,0,0,0-23.09-18Zm-278-207.76-.1,0V336.9l.1,0v.1c25.64-.87,51.09-11.71,71.89-32.51h0l-16.22-16.22V209.59l16.2,16.21L2529,265.14l0,0,39.32,39.32h0c20.79,20.79,46.21,31.63,71.84,32.52v-.15l.16.08V114.67l-.16.08v-.1c-25.63.89-51.05,11.72-71.84,32.51h0l16.23,16.23V242l-16.21-16.21-39.34-39.34,0,0-39.32-39.33h0c-20.8-20.81-46.25-31.65-71.89-32.52Zm772.76-.51-49.92,83.35-49.44-83.35h-61.69l83.35,138.92v83.34h56V253.13l83.35-138.92Zm-1496,222.73h56V113.74h-56Z" />
        </clipPath>
        <linearGradient id="linear-gradient-6" x1="2217" y1="482" x2="2220.04" y2="482"
            gradientTransform="matrix(0, -592.59, -592.59, 0, 288101.22, 1314877.53)" xlink:href="#linear-gradient" />
    </defs>
    <title>Untitled-1</title>
    <path class="cls-3"
        d="M317.24,336.47,206.11,197.56V336.47H150.54V114.21h55.57L317.24,253.13V114.21H372.8V336.47ZM483.93,169.78v55.56h111.6v55.57H483.93v55.56H428.37V114.21h195v55.57Zm778.84-.15V336.48h-55.62V169.63h-83.42V114h222.46v55.62Z" />
    <path class="cls-1"
        d="M683.56,147.16a111.22,111.22,0,0,0,0,157.28,116.62,116.62,0,0,0,23,18V129.17a117,117,0,0,0-23,18m356.69,175.32a117.21,117.21,0,0,0,23.09-18,111.24,111.24,0,0,0,0-157.3,117.21,117.21,0,0,0-23.09-18Zm-278-207.76-.09,0V336.9l.09,0v.1c25.65-.87,51.1-11.71,71.9-32.51h0L817.9,288.24V209.59l16.2,16.21,39.34,39.34,0,0,39.32,39.32h0C933.59,325.24,959,336.08,984.64,337v-.15l.16.08V114.67l-.16.08v-.1c-25.63.89-51,11.72-71.84,32.51h0L929,163.38V242L912.8,225.81l-39.34-39.34,0,0-39.32-39.33h0c-20.8-20.81-46.25-31.65-71.9-32.52Zm772.77-.51-49.92,83.35-49.44-83.35h-61.69l83.35,138.92v83.34h56V253.13l83.35-138.92ZM38.94,336.94H95V113.74h-56Z" />
    <g class="cls-4">
        <rect class="cls-5" x="87.48" y="-260.73" width="1460.63" height="972.18"
            transform="translate(-3.11 439.09) rotate(-30)" />
    </g>
    <path class="cls-2"
        d="M2339.16,147.16a111.2,111.2,0,0,0,0,157.28,116.56,116.56,0,0,0,23,18V129.17a116.94,116.94,0,0,0-23,18m356.68,175.32a117.21,117.21,0,0,0,23.09-18,111.24,111.24,0,0,0,0-157.3,117.21,117.21,0,0,0-23.09-18Zm-278-207.76-.1,0V336.9l.1,0v.1c25.64-.87,51.09-11.71,71.89-32.51h0l-16.22-16.22V209.59l16.2,16.21L2529,265.14l0,0,39.32,39.32h0c20.79,20.79,46.21,31.63,71.84,32.52v-.15l.16.08V114.67l-.16.08v-.1c-25.63.89-51.05,11.72-71.84,32.51h0l16.23,16.23V242l-16.21-16.21-39.34-39.34,0,0-39.32-39.33h0c-20.8-20.81-46.25-31.65-71.89-32.52Zm772.76-.51-49.92,83.35-49.44-83.35h-61.69l83.35,138.92v83.34h56V253.13l83.35-138.92Zm-1496,222.73h56V113.74h-56Z" />
    <g class="cls-6">
        <rect class="cls-7" x="1743.07" y="-260.73" width="1460.63" height="972.18"
            transform="translate(218.69 1266.88) rotate(-30)" />
    </g>
</svg>