<svg width="285" height="60" viewBox="0 0 285 60" fill="none" xmlns="http://www.w3.org/2000/svg">
<path d="M139.054 33.7317V49.9546H132.5V35.5397C132.5 28.7592 130.073 27.0763 126.772 27.0763C122.986 27.0763 121.044 30.4669 121.044 35.5397V49.9546H114.491V21.9789H121.044V28.7593C121.564 26.6694 122.72 24.8079 124.342 23.451C125.964 22.0941 127.965 21.3138 130.049 21.2254C134.151 21.0245 139.054 23.5609 139.054 33.7317Z" fill="#010101"/>
<path d="M211.967 33.7317V49.9546H205.413V35.5397C205.413 28.7592 202.986 27.0763 199.685 27.0763C195.875 27.0763 193.933 30.4669 193.933 35.5397V49.9546H187.379V21.9789H193.933V28.7593C194.454 26.6654 195.614 24.801 197.24 23.4437C198.867 22.0863 200.874 21.3085 202.962 21.2254C207.04 21.0245 211.967 23.5609 211.967 33.7317Z" fill="#010101"/>
<path d="M148.106 18.4631C148.106 13.2898 150.533 10.9292 155.387 10.9292H161.116V16.9064H154.562V21.929H161.116V27.8554H154.562V49.9549H148.106V27.9308H142.354V21.9793H148.106V18.4631Z" fill="#010101"/>
<path d="M239.805 27.805H234.077V21.8535H239.805V14.3196H246.358V21.8535H252.912V27.7798H246.358V43.8777H252.912V49.9548H247.183C242.183 49.9548 239.902 47.4434 239.902 42.2952L239.805 27.805Z" fill="#010101"/>
<path d="M174.879 17.6344C176.916 17.6344 178.568 15.9254 178.568 13.8172C178.568 11.709 176.916 10 174.879 10C172.841 10 171.189 11.709 171.189 13.8172C171.189 15.9254 172.841 17.6344 174.879 17.6344Z" fill="#010101"/>
<path d="M183.277 43.9025L178.374 43.9276V21.8533H166.092V27.8051H171.82V43.9025H166.092V49.8292H183.277V43.9025Z" fill="#010101"/>
<path d="M109.563 43.9025L100.558 43.9276V16.7804H109.563V10.8538H85V16.7804H94.0048V43.9025L85 43.8774V49.8041L109.563 49.8292V43.9025Z" fill="#010101"/>
<path d="M224.854 17.6344C226.892 17.6344 228.544 15.9254 228.544 13.8172C228.544 11.709 226.892 10 224.854 10C222.817 10 221.165 11.709 221.165 13.8172C221.165 15.9254 222.817 17.6344 224.854 17.6344Z" fill="#010101"/>
<path d="M233.253 43.9025L228.325 43.9276V21.8533H216.044V27.8051H221.772V43.9025H216.044V49.8292H233.253V43.9025Z" fill="#010101"/>
<path d="M277.5 21.8535L270.218 41.3664L263.665 21.8535H256.383L267.039 48.9757L265.024 53.1191C264.892 53.4034 264.686 53.6438 264.428 53.8125C264.171 53.9813 263.873 54.0712 263.568 54.0731H257.209V60.0001H262.063C266.917 60.0001 268.616 59.9998 271.092 54.0731L285 21.8535H277.5Z" fill="black"/>
<path d="M48.2877 60H13.3562C5.9589 60 0 54.2 0 47V13C0 5.8 5.9589 0 13.3562 0H48.2877C55.6849 0 61.6438 5.8 61.6438 13V47C61.6438 54.2 55.6849 60 48.2877 60Z" fill="black"/>
<path d="M41.0792 19.8801C32.1039 19.8801 30.8217 29.2551 30.8217 29.2551C30.8217 29.2551 29.5395 19.8801 20.5642 19.8801C17.8437 19.8801 15.2347 20.9335 13.311 22.8089C11.3873 24.6843 10.3066 27.228 10.3066 29.8801C10.3066 32.5323 11.3873 35.0757 13.311 36.951C15.2347 38.8264 17.8437 39.8801 20.5642 39.8801C29.5395 39.8801 30.8217 30.5051 30.8217 30.5051C30.8217 30.5051 32.1039 39.8801 41.0792 39.8801C43.7997 39.8801 46.4088 38.8264 48.3324 36.951C50.2561 35.0757 51.3368 32.5323 51.3368 29.8801C51.3368 27.228 50.2561 24.6843 48.3324 22.8089C46.4088 20.9335 43.7997 19.8801 41.0792 19.8801Z" fill="white"/>
</svg>
