<?xml version="1.0" encoding="utf-8"?>
<!-- Generator: Adobe Illustrator 26.0.1, SVG Export Plug-In . SVG Version: 6.00 Build 0)  -->
<svg version="1.1" id="Layer_1" xmlns="http://www.w3.org/2000/svg" xmlns:xlink="http://www.w3.org/1999/xlink" x="0px" y="0px"
	 viewBox="0 0 531 160" style="enable-background:new 0 0 531 160;" xml:space="preserve">
<style type="text/css">
	.st0{fill:#010101;}
	.st1{fill:#FFFFFF;}
</style>
<g>
	<path class="st0" d="M325,84v19h-8V86c0-7-3-10-7-10c-4.63,0-7,4-7,10v17h-8V70h8v8c1-5,5.99-9,11-9C319,69,325,72,325,84z"/>
	<path class="st0" d="M413,84v19h-8V86c0-7-3-10-7-10c-4.63,0-7,4-7,10v17h-8V70h8v8c1-5,5.99-9,11-9C407,69,413,72,413,84z"/>
	<path class="st0" d="M337,66c0-6.11,2.89-9,9-9l6,0v7.03l-7-0.03v5.97l7,0.03v7h-7V103h-8V77h-7v-7.06l7,0.03V66z"/>
	<path class="st0" d="M449,77.03l-7,0.03V70h7v-9h8v9h7v7l-7,0.03v18.95l7-0.03V103l-6,0c-6.11,0-9-2.92-9-9.03V77.03z"/>
	<circle class="st0" cx="367.75" cy="60.5" r="4.5"/>
	<polygon class="st0" points="378,96 372,96.03 372,70 357,70 357,77.03 364,77 364,96 357,96 357,103 378,103 	"/>
	<polygon class="st0" points="288,96 277,96.03 277,64 288,64 288,57 258,57 258,64 269,64 269,96 258,95.97 258,102.97 268,103 
		288,103 	"/>
	<path class="st0" d="M364,70"/>
	<path class="st0" d="M364,77.97"/>
	<circle class="st0" cx="428.75" cy="60.5" r="4.5"/>
	<polygon class="st0" points="439,96 433,96.03 433,70 418,70 418,77.03 425,77 425,96 418,96 418,103 439,103 	"/>
	<path class="st0" d="M425,70"/>
	<path class="st0" d="M425,77.97"/>
	<path class="st0" d="M494,70l-9,23l-8-23h-9l13,32l-1.54,4.63c-0.27,0.82-1.04,1.37-1.9,1.37l-3.56,0l-5,0V115h8c6,0,6,0,9-7l17-38
		H494z"/>
</g>
<rect x="30" y="30" class="st0" width="168" height="100"/>
<path class="st1" d="M148,47c-29,0-34,31-34,31s-4-31-33-31c-19,0-34,15-34,33s14,33,33,33c29,0,34-31,34-31s4,31,33,31
	c19,0,34-15,34-33S167,47,148,47z"/>
</svg>
