<svg width="138" height="41" viewBox="0 0 138 41" fill="none" xmlns="http://www.w3.org/2000/svg">
<g filter="url(#filter0_i)">
<path d="M2.9725 6.245C2.32083 6.245 1.76833 6.01833 1.315 5.565C0.89 5.11167 0.6775 4.57333 0.6775 3.95C0.6775 3.32667 0.89 2.78833 1.315 2.335C1.76833 1.88167 2.32083 1.655 2.9725 1.655C3.59583 1.655 4.12 1.88167 4.545 2.335C4.99833 2.76 5.225 3.29833 5.225 3.95C5.225 4.60167 4.99833 5.15417 4.545 5.6075C4.12 6.0325 3.59583 6.245 2.9725 6.245ZM1.6125 32C1.24417 32 1.06 31.8017 1.06 31.405V11.77C1.06 11.3733 1.24417 11.175 1.6125 11.175H4.29C4.68667 11.175 4.885 11.3733 4.885 11.77V31.405C4.885 31.8017 4.68667 32 4.29 32H1.6125ZM52.1696 6.245C51.5179 6.245 50.9654 6.01833 50.5121 5.565C50.0871 5.11167 49.8746 4.57333 49.8746 3.95C49.8746 3.32667 50.0871 2.78833 50.5121 2.335C50.9654 1.88167 51.5179 1.655 52.1696 1.655C52.7929 1.655 53.3171 1.88167 53.7421 2.335C54.1954 2.76 54.4221 3.29833 54.4221 3.95C54.4221 4.60167 54.1954 5.15417 53.7421 5.6075C53.3171 6.0325 52.7929 6.245 52.1696 6.245ZM50.8096 32C50.4412 32 50.2571 31.8017 50.2571 31.405V11.77C50.2571 11.3733 50.4412 11.175 50.8096 11.175H53.4871C53.8837 11.175 54.0821 11.3733 54.0821 11.77V31.405C54.0821 31.8017 53.8837 32 53.4871 32H50.8096ZM60.9415 32C60.5448 32 60.3465 31.8017 60.3465 31.405V11.77C60.3465 11.3733 60.5448 11.175 60.9415 11.175H63.449C63.8457 11.175 64.044 11.3875 64.044 11.8125L64.1715 14.4475C65.5882 11.9258 67.8407 10.665 70.929 10.665C73.224 10.665 75.0515 11.4158 76.4115 12.9175C77.7998 14.3908 78.494 16.4733 78.494 19.165V31.405C78.494 31.8017 78.2957 32 77.899 32H75.2215C74.8532 32 74.669 31.8017 74.669 31.405V19.76C74.669 18.0033 74.2298 16.6433 73.3515 15.68C72.5015 14.6883 71.2832 14.1925 69.6965 14.1925C68.0815 14.1925 66.7498 14.7025 65.7015 15.7225C64.6815 16.7142 64.1715 18.06 64.1715 19.76V31.405C64.1715 31.8017 63.9873 32 63.619 32H60.9415ZM86.7108 6.245C86.0591 6.245 85.5066 6.01833 85.0533 5.565C84.6283 5.11167 84.4158 4.57333 84.4158 3.95C84.4158 3.32667 84.6283 2.78833 85.0533 2.335C85.5066 1.88167 86.0591 1.655 86.7108 1.655C87.3341 1.655 87.8583 1.88167 88.2833 2.335C88.7366 2.76 88.9633 3.29833 88.9633 3.95C88.9633 4.60167 88.7366 5.15417 88.2833 5.6075C87.8583 6.0325 87.3341 6.245 86.7108 6.245ZM85.3508 32C84.9824 32 84.7983 31.8017 84.7983 31.405V11.77C84.7983 11.3733 84.9824 11.175 85.3508 11.175H88.0283C88.4249 11.175 88.6233 11.3733 88.6233 11.77V31.405C88.6233 31.8017 88.4249 32 88.0283 32H85.3508ZM114.085 40.075C113.603 40.075 113.462 39.8625 113.66 39.4375L116.593 32.085L108.603 11.8975C108.433 11.4158 108.588 11.175 109.07 11.175H111.79C112.13 11.175 112.357 11.345 112.47 11.685L118.505 27.665L124.54 11.685C124.653 11.345 124.894 11.175 125.263 11.175H127.94C128.45 11.175 128.62 11.4158 128.45 11.8975L117.443 39.565C117.301 39.905 117.06 40.075 116.72 40.075H114.085Z" fill="black"/>
<path d="M11.7444 32C11.3478 32 11.1494 31.8017 11.1494 31.405V11.77C11.1494 11.3733 11.3478 11.175 11.7444 11.175H14.2519C14.6486 11.175 14.8469 11.3875 14.8469 11.8125L14.9744 14.4475C16.3911 11.9258 18.6436 10.665 21.7319 10.665C24.0269 10.665 25.8544 11.4158 27.2144 12.9175C28.6028 14.3908 29.2969 16.4733 29.2969 19.165V31.405C29.2969 31.8017 29.0986 32 28.7019 32H26.0244C25.6561 32 25.4719 31.8017 25.4719 31.405V19.76C25.4719 18.0033 25.0328 16.6433 24.1544 15.68C23.3044 14.6883 22.0861 14.1925 20.4994 14.1925C18.8844 14.1925 17.5528 14.7025 16.5044 15.7225C15.4844 16.7142 14.9744 18.06 14.9744 19.76V31.405C14.9744 31.8017 14.7903 32 14.4219 32H11.7444ZM37.1511 32C36.7545 32 36.5561 31.8017 36.5561 31.405V14.2775H34.0911C33.6661 14.2775 33.4536 14.065 33.4536 13.64V11.77C33.4536 11.3733 33.6661 11.175 34.0911 11.175H36.5561V6.8825C36.5561 2.91583 38.5253 0.9325 42.4636 0.9325C43.4553 0.9325 44.2486 1.07417 44.8436 1.3575C45.0986 1.49917 45.2261 1.68333 45.2261 1.91V4.2475C45.2261 4.5025 45.042 4.60166 44.6736 4.545C44.107 4.46 43.6111 4.4175 43.1861 4.4175C42.1095 4.4175 41.3728 4.68666 40.9761 5.225C40.6078 5.76333 40.4236 6.5425 40.4236 7.5625V11.175H44.5886C45.0136 11.175 45.2261 11.3733 45.2261 11.77V13.64C45.2261 14.065 45.0136 14.2775 44.5886 14.2775H40.4236V31.405C40.4236 31.8017 40.2253 32 39.8286 32H37.1511ZM101.858 32.51C100.299 32.51 99.081 32.1133 98.2027 31.32C97.3527 30.4983 96.9277 29.2517 96.9277 27.58V14.2775H94.2502C93.8252 14.2775 93.6127 14.065 93.6127 13.64V11.77C93.6127 11.3733 93.8252 11.175 94.2502 11.175H96.9277V6.245C96.9277 5.84833 97.126 5.65 97.5227 5.65H100.2C100.569 5.65 100.753 5.84833 100.753 6.245V11.175H104.238C104.634 11.175 104.833 11.3733 104.833 11.77V13.64C104.833 14.065 104.634 14.2775 104.238 14.2775H100.753V27.1125C100.753 28.5292 101.39 29.2375 102.665 29.2375C102.977 29.2375 103.416 29.2092 103.983 29.1525C104.521 29.0675 104.79 29.2517 104.79 29.705V31.49C104.79 32.17 103.813 32.51 101.858 32.51ZM136.684 31.83C136.202 32.3117 135.607 32.5525 134.899 32.5525C134.19 32.5525 133.581 32.3117 133.071 31.83C132.59 31.32 132.349 30.7108 132.349 30.0025C132.349 29.2942 132.59 28.6992 133.071 28.2175C133.581 27.7075 134.19 27.4525 134.899 27.4525C135.607 27.4525 136.202 27.7075 136.684 28.2175C137.194 28.6992 137.449 29.2942 137.449 30.0025C137.449 30.7108 137.194 31.32 136.684 31.83Z" fill="#4047FF"/>
</g>
<defs>
<filter id="filter0_i" x="0.677734" y="0.932617" width="136.771" height="43.1423" filterUnits="userSpaceOnUse" color-interpolation-filters="sRGB">
<feFlood flood-opacity="0" result="BackgroundImageFix"/>
<feBlend mode="normal" in="SourceGraphic" in2="BackgroundImageFix" result="shape"/>
<feColorMatrix in="SourceAlpha" type="matrix" values="0 0 0 0 0 0 0 0 0 0 0 0 0 0 0 0 0 0 127 0" result="hardAlpha"/>
<feOffset dy="4"/>
<feGaussianBlur stdDeviation="2"/>
<feComposite in2="hardAlpha" operator="arithmetic" k2="-1" k3="1"/>
<feColorMatrix type="matrix" values="0 0 0 0 0 0 0 0 0 0 0 0 0 0 0 0 0 0 0.25 0"/>
<feBlend mode="normal" in2="shape" result="effect1_innerShadow"/>
</filter>
</defs>
</svg>
