<svg width="68" height="68" viewBox="0 0 68 68" fill="none" xmlns="http://www.w3.org/2000/svg">
<path d="M6.89 46C6.43667 46 6.21 45.7733 6.21 45.32V25.855C6.21 25.4017 6.43667 25.175 6.89 25.175H12.5C12.925 25.175 13.1375 25.4158 13.1375 25.8975L13.35 28.235C14.6817 25.855 16.665 24.665 19.3 24.665C21.51 24.665 23.3092 25.4442 24.6975 27.0025C26.1142 28.5608 26.8225 30.6575 26.8225 33.2925V45.32C26.8225 45.5183 26.7517 45.6883 26.61 45.83C26.4683 45.9433 26.2983 46 26.1 46H20.3625C19.9092 46 19.6825 45.7733 19.6825 45.32V35.0775C19.6825 32.4992 18.6342 31.21 16.5375 31.21C14.4125 31.21 13.35 32.4992 13.35 35.0775V45.32C13.35 45.7733 13.1233 46 12.67 46H6.89ZM59.4944 45.3625C58.701 46.1558 57.7377 46.5525 56.6044 46.5525C55.471 46.5525 54.4935 46.1558 53.6719 45.3625C52.8785 44.5692 52.4819 43.6058 52.4819 42.4725C52.4819 41.3108 52.8785 40.3333 53.6719 39.54C54.4935 38.7183 55.471 38.3075 56.6044 38.3075C57.7377 38.3075 58.701 38.7183 59.4944 39.54C60.2877 40.3333 60.6844 41.3108 60.6844 42.4725C60.6844 43.6058 60.2877 44.5692 59.4944 45.3625Z" fill="#4047FF"/>
<path d="M41.4379 46.51C38.2362 46.51 35.587 45.4617 33.4904 43.365C31.3937 41.24 30.3454 38.605 30.3454 35.46C30.3454 32.4 31.3654 29.8358 33.4054 27.7675C35.4737 25.6992 38.0804 24.665 41.2254 24.665C44.7104 24.665 47.4304 25.9542 49.3854 28.5325C49.6404 28.8442 49.612 29.1558 49.3004 29.4675L46.0279 32.6125C45.6312 33.0092 45.2487 33.0092 44.8804 32.6125C43.8604 31.6775 42.7554 31.21 41.5654 31.21C40.2054 31.21 39.1287 31.6208 38.3354 32.4425C37.5704 33.2642 37.1879 34.27 37.1879 35.46C37.1879 36.6783 37.5845 37.7408 38.3779 38.6475C39.1995 39.5258 40.3045 39.965 41.6929 39.965C42.8545 39.965 43.9312 39.4833 44.9229 38.52C45.2912 38.1517 45.6737 38.1658 46.0704 38.5625L49.3429 41.7075C49.6545 42.0192 49.6829 42.3308 49.4279 42.6425C47.4729 45.2208 44.8095 46.51 41.4379 46.51Z" fill="#071013"/>
<path d="M35.1305 56.1343C34.3505 56.1322 33.7747 55.8239 33.4031 55.2095L33.3813 55.8594C33.381 55.9594 33.3342 56.0093 33.2409 56.009L32.5109 56.007C32.4175 56.0067 32.371 55.9566 32.3713 55.8566L32.3905 49.0066C32.3908 48.9066 32.4376 48.8568 32.5309 48.857L33.3309 48.8593C33.4243 48.8595 33.4708 48.9097 33.4705 49.0097L33.4626 51.8396C33.8375 51.274 34.3983 50.9923 35.145 50.9944C35.8383 50.9963 36.4043 51.2446 36.8429 51.7391C37.2815 52.227 37.4998 52.8377 37.4977 53.571C37.4957 54.311 37.2739 54.9237 36.8326 55.4091C36.3912 55.8946 35.8239 56.1363 35.1305 56.1343ZM34.9233 55.1438C35.37 55.145 35.7337 55.0027 36.0145 54.7168C36.302 54.4243 36.4464 54.0414 36.4477 53.568C36.449 53.1014 36.3068 52.721 36.0209 52.4268C35.7351 52.1327 35.3722 51.985 34.9322 51.9838C34.4922 51.9825 34.1351 52.1282 33.8609 52.4208C33.5868 52.7133 33.449 53.0963 33.4477 53.5696C33.4464 54.0363 33.582 54.4167 33.8545 54.7108C34.127 54.9982 34.4833 55.1425 34.9233 55.1438ZM41.0214 56.1509C40.2348 56.1487 39.5988 55.9002 39.1135 55.4055C38.6282 54.9108 38.3866 54.2935 38.3887 53.5535C38.3908 52.8202 38.6225 52.2141 39.0838 51.7354C39.5519 51.2501 40.1525 51.0084 40.8859 51.0105C41.5925 51.0125 42.1552 51.244 42.5739 51.7052C42.9927 52.1597 43.2011 52.707 43.1993 53.347C43.1987 53.5737 43.1649 53.7369 43.0979 53.8367C43.0377 53.9365 42.9175 53.9862 42.7375 53.9857L39.4375 53.9764C39.5031 54.3766 39.6789 54.6938 39.9649 54.9279C40.2575 55.1621 40.6406 55.2798 41.1139 55.2811C41.5739 55.2824 41.9942 55.1569 42.3749 54.9047C42.4417 54.8649 42.495 54.875 42.5349 54.9351L42.8138 55.3159C42.8669 55.3827 42.8534 55.456 42.7732 55.5358C42.352 55.948 41.7681 56.153 41.0214 56.1509ZM39.4297 53.1964L42.2397 53.2043C42.2142 52.8042 42.0784 52.4905 41.8324 52.2631C41.5863 52.0358 41.27 51.9216 40.8833 51.9205C40.4967 51.9194 40.1697 52.0318 39.9024 52.2577C39.6417 52.4837 39.4842 52.7966 39.4297 53.1964ZM45.9881 56.1648C45.5947 56.1637 45.2817 56.0628 45.0489 55.8622C44.8228 55.6549 44.7104 55.3346 44.7116 54.9012L44.7197 52.0012L44.0897 51.9995C43.9964 51.9992 43.9499 51.9491 43.9502 51.8491L43.9517 51.2891C43.952 51.1891 43.9988 51.1392 44.0922 51.1395L44.7222 51.1413L44.7254 49.9913C44.7257 49.8913 44.7725 49.8414 44.8658 49.8416L45.6758 49.8439C45.7691 49.8442 45.8157 49.8943 45.8154 49.9943L45.8122 51.1443L46.6022 51.1465C46.7022 51.1468 46.752 51.1969 46.7517 51.2969L46.7502 51.8569C46.7499 51.9569 46.6997 52.0068 46.5997 52.0065L45.8097 52.0043L45.8019 54.7843C45.8011 55.0976 45.9473 55.2547 46.2406 55.2555C46.3006 55.2557 46.404 55.2493 46.5507 55.2364C46.6707 55.2301 46.7306 55.2769 46.7303 55.3769L46.7288 55.9069C46.7283 56.0802 46.4814 56.1662 45.9881 56.1648ZM49.8844 56.1758C49.191 56.1738 48.6251 55.9289 48.1864 55.441C47.7478 54.9531 47.5295 54.3391 47.5316 53.5991C47.5337 52.8658 47.7554 52.2564 48.1967 51.771C48.6381 51.2789 49.2055 51.0338 49.8988 51.0358C50.6855 51.038 51.2613 51.3496 51.6262 51.9706L51.648 51.3107C51.6483 51.2107 51.6951 51.1608 51.7885 51.1611L52.5185 51.1631C52.6118 51.1634 52.6583 51.2135 52.658 51.3135L52.6451 55.9135C52.6448 56.0135 52.598 56.0634 52.5047 56.0631L51.7747 56.0611C51.6814 56.0608 51.6348 56.0107 51.6351 55.9107L51.617 55.2606C51.2419 55.8729 50.6644 56.178 49.8844 56.1758ZM50.0972 55.1864C50.5372 55.1876 50.8942 55.0453 51.1684 54.7594C51.4425 54.4668 51.5802 54.0872 51.5816 53.6205C51.5829 53.1472 51.4473 52.7635 51.1748 52.4694C50.9023 52.1753 50.546 52.0276 50.106 52.0264C49.666 52.0251 49.3023 52.1708 49.0148 52.4633C48.7273 52.7558 48.5829 53.1354 48.5816 53.6021C48.5803 54.0754 48.7192 54.4592 48.9984 54.7533C49.2842 55.0407 49.6505 55.1851 50.0972 55.1864Z" fill="#4047FF"/>
</svg>
