
<svg width="55" height="23" viewBox="0 0 55 23" fill="none" xmlns="http://www.w3.org/2000/svg">
<path d="M0.89 22C0.436667 22 0.21 21.7733 0.21 21.32V1.855C0.21 1.40167 0.436667 1.175 0.89 1.175H6.5C6.925 1.175 7.1375 1.41583 7.1375 1.8975L7.35 4.235C8.68167 1.855 10.665 0.664999 13.3 0.664999C15.51 0.664999 17.3092 1.44417 18.6975 3.0025C20.1142 4.56083 20.8225 6.6575 20.8225 9.2925V21.32C20.8225 21.5183 20.7517 21.6883 20.61 21.83C20.4683 21.9433 20.2983 22 20.1 22H14.3625C13.9092 22 13.6825 21.7733 13.6825 21.32V11.0775C13.6825 8.49917 12.6342 7.21 10.5375 7.21C8.4125 7.21 7.35 8.49917 7.35 11.0775V21.32C7.35 21.7733 7.12333 22 6.67 22H0.89ZM53.4944 21.3625C52.701 22.1558 51.7377 22.5525 50.6044 22.5525C49.471 22.5525 48.4935 22.1558 47.6719 21.3625C46.8785 20.5692 46.4819 19.6058 46.4819 18.4725C46.4819 17.3108 46.8785 16.3333 47.6719 15.54C48.4935 14.7183 49.471 14.3075 50.6044 14.3075C51.7377 14.3075 52.701 14.7183 53.4944 15.54C54.2877 16.3333 54.6844 17.3108 54.6844 18.4725C54.6844 19.6058 54.2877 20.5692 53.4944 21.3625Z" fill="#4047FF"/>
<path d="M35.4379 22.51C32.2362 22.51 29.587 21.4617 27.4904 19.365C25.3937 17.24 24.3454 14.605 24.3454 11.46C24.3454 8.4 25.3654 5.83583 27.4054 3.7675C29.4737 1.69917 32.0804 0.664999 35.2254 0.664999C38.7104 0.664999 41.4304 1.95417 43.3854 4.5325C43.6404 4.84417 43.612 5.15583 43.3004 5.4675L40.0279 8.6125C39.6312 9.00917 39.2487 9.00917 38.8804 8.6125C37.8604 7.6775 36.7554 7.21 35.5654 7.21C34.2054 7.21 33.1287 7.62083 32.3354 8.4425C31.5704 9.26417 31.1879 10.27 31.1879 11.46C31.1879 12.6783 31.5845 13.7408 32.3779 14.6475C33.1995 15.5258 34.3045 15.965 35.6929 15.965C36.8545 15.965 37.9312 15.4833 38.9229 14.52C39.2912 14.1517 39.6737 14.1658 40.0704 14.5625L43.3429 17.7075C43.6545 18.0192 43.6829 18.3308 43.4279 18.6425C41.4729 21.2208 38.8095 22.51 35.4379 22.51Z" fill="white"/>
</svg>
