<svg width="68" height="68" viewBox="0 0 68 68" fill="none" xmlns="http://www.w3.org/2000/svg">
<path d="M6.89 46C6.43667 46 6.21 45.7733 6.21 45.32V25.855C6.21 25.4017 6.43667 25.175 6.89 25.175H12.5C12.925 25.175 13.1375 25.4158 13.1375 25.8975L13.35 28.235C14.6817 25.855 16.665 24.665 19.3 24.665C21.51 24.665 23.3092 25.4442 24.6975 27.0025C26.1142 28.5608 26.8225 30.6575 26.8225 33.2925V45.32C26.8225 45.5183 26.7517 45.6883 26.61 45.83C26.4683 45.9433 26.2983 46 26.1 46H20.3625C19.9092 46 19.6825 45.7733 19.6825 45.32V35.0775C19.6825 32.4992 18.6342 31.21 16.5375 31.21C14.4125 31.21 13.35 32.4992 13.35 35.0775V45.32C13.35 45.7733 13.1233 46 12.67 46H6.89ZM59.4944 45.3625C58.701 46.1558 57.7377 46.5525 56.6044 46.5525C55.471 46.5525 54.4935 46.1558 53.6719 45.3625C52.8785 44.5692 52.4819 43.6058 52.4819 42.4725C52.4819 41.3108 52.8785 40.3333 53.6719 39.54C54.4935 38.7183 55.471 38.3075 56.6044 38.3075C57.7377 38.3075 58.701 38.7183 59.4944 39.54C60.2877 40.3333 60.6844 41.3108 60.6844 42.4725C60.6844 43.6058 60.2877 44.5692 59.4944 45.3625Z" fill="#4047FF"/>
<path d="M41.4379 46.51C38.2362 46.51 35.587 45.4617 33.4904 43.365C31.3937 41.24 30.3454 38.605 30.3454 35.46C30.3454 32.4 31.3654 29.8358 33.4054 27.7675C35.4737 25.6992 38.0804 24.665 41.2254 24.665C44.7104 24.665 47.4304 25.9542 49.3854 28.5325C49.6404 28.8442 49.612 29.1558 49.3004 29.4675L46.0279 32.6125C45.6312 33.0092 45.2487 33.0092 44.8804 32.6125C43.8604 31.6775 42.7554 31.21 41.5654 31.21C40.2054 31.21 39.1287 31.6208 38.3354 32.4425C37.5704 33.2642 37.1879 34.27 37.1879 35.46C37.1879 36.6783 37.5845 37.7408 38.3779 38.6475C39.1995 39.5258 40.3045 39.965 41.6929 39.965C42.8545 39.965 43.9312 39.4833 44.9229 38.52C45.2912 38.1517 45.6737 38.1658 46.0704 38.5625L49.3429 41.7075C49.6545 42.0192 49.6829 42.3308 49.4279 42.6425C47.4729 45.2208 44.8095 46.51 41.4379 46.51Z" fill="#071013"/>
</svg>
