
<svg width="250" height="41" viewBox="0 0 250 41" fill="none" xmlns="http://www.w3.org/2000/svg">
<path d="M0.89 32C0.436667 32 0.21 31.7733 0.21 31.32V11.855C0.21 11.4017 0.436667 11.175 0.89 11.175H6.5C6.925 11.175 7.1375 11.4158 7.1375 11.8975L7.35 14.235C8.68167 11.855 10.665 10.665 13.3 10.665C15.51 10.665 17.3092 11.4442 18.6975 13.0025C20.1142 14.5608 20.8225 16.6575 20.8225 19.2925V31.32C20.8225 31.5183 20.7517 31.6883 20.61 31.83C20.4683 31.9433 20.2983 32 20.1 32H14.3625C13.9092 32 13.6825 31.7733 13.6825 31.32V21.0775C13.6825 18.4992 12.6342 17.21 10.5375 17.21C8.4125 17.21 7.35 18.4992 7.35 21.0775V31.32C7.35 31.7733 7.12333 32 6.67 32H0.89ZM27.0853 32C26.6319 32 26.4053 31.7733 26.4053 31.32V16.6575H23.9403C23.5153 16.6575 23.3028 16.4308 23.3028 15.9775V11.855C23.3028 11.4017 23.5153 11.175 23.9403 11.175H26.4053V8.5825C26.4053 3.4825 29.0403 0.9325 34.3103 0.9325C35.7553 0.9325 36.9878 1.20167 38.0078 1.74C38.2628 1.85333 38.3903 2.08 38.3903 2.42V7.18C38.3903 7.435 38.2061 7.53417 37.8378 7.4775C36.8178 7.3075 36.1944 7.2225 35.9678 7.2225C35.0611 7.2225 34.4378 7.42083 34.0978 7.8175C33.7578 8.18583 33.5878 8.73833 33.5878 9.475V11.175H37.7528C38.1778 11.175 38.3903 11.4017 38.3903 11.855V15.9775C38.3903 16.4308 38.1778 16.6575 37.7528 16.6575H33.5878V31.32C33.5878 31.7733 33.3611 32 32.9078 32H27.0853ZM50.9019 32.51C48.8619 32.51 47.1619 31.9858 45.8019 30.9375C44.4419 29.8608 43.7619 28.1325 43.7619 25.7525V16.6575H41.1694C40.7444 16.6575 40.5319 16.4308 40.5319 15.9775V11.855C40.5319 11.4017 40.7444 11.175 41.1694 11.175H43.7619V6.33C43.7619 5.87667 43.9885 5.65 44.4419 5.65H50.3069C50.7602 5.65 50.9869 5.87667 50.9869 6.33V11.175H54.0894C54.5427 11.175 54.7694 11.4017 54.7694 11.855V15.9775C54.7694 16.4308 54.5427 16.6575 54.0894 16.6575H50.9869V24.9875C50.9869 25.4975 51.1569 25.8942 51.4969 26.1775C51.8369 26.4608 52.2619 26.6025 52.7719 26.6025C53.2535 26.6025 53.6927 26.5883 54.0894 26.56C54.571 26.56 54.8119 26.7725 54.8119 27.1975V31.1075C54.8119 31.5892 54.401 31.9433 53.5794 32.17C52.786 32.3967 51.8935 32.51 50.9019 32.51ZM247.98 31.3625C247.187 32.1558 246.223 32.5525 245.09 32.5525C243.957 32.5525 242.979 32.1558 242.158 31.3625C241.364 30.5692 240.968 29.6058 240.968 28.4725C240.968 27.3108 241.364 26.3333 242.158 25.54C242.979 24.7183 243.957 24.3075 245.09 24.3075C246.223 24.3075 247.187 24.7183 247.98 25.54C248.773 26.3333 249.17 27.3108 249.17 28.4725C249.17 29.6058 248.773 30.5692 247.98 31.3625Z" fill="#4047FF"/>
<path d="M68.1529 32.51C64.9512 32.51 62.3021 31.4617 60.2054 29.365C58.1087 27.24 57.0604 24.605 57.0604 21.46C57.0604 18.4 58.0804 15.8358 60.1204 13.7675C62.1887 11.6992 64.7954 10.665 67.9404 10.665C71.4254 10.665 74.1454 11.9542 76.1004 14.5325C76.3554 14.8442 76.3271 15.1558 76.0154 15.4675L72.7429 18.6125C72.3462 19.0092 71.9637 19.0092 71.5954 18.6125C70.5754 17.6775 69.4704 17.21 68.2804 17.21C66.9204 17.21 65.8437 17.6208 65.0504 18.4425C64.2854 19.2642 63.9029 20.27 63.9029 21.46C63.9029 22.6783 64.2996 23.7408 65.0929 24.6475C65.9146 25.5258 67.0196 25.965 68.4079 25.965C69.5696 25.965 70.6462 25.4833 71.6379 24.52C72.0062 24.1517 72.3887 24.1658 72.7854 24.5625L76.0579 27.7075C76.3696 28.0192 76.3979 28.3308 76.1429 28.6425C74.1879 31.2208 71.5246 32.51 68.1529 32.51ZM88.9493 32.51C85.776 32.51 83.141 31.4617 81.0443 29.365C78.976 27.2683 77.9418 24.6758 77.9418 21.5875C77.9418 18.4992 78.976 15.9067 81.0443 13.81C83.141 11.7133 85.776 10.665 88.9493 10.665C92.0943 10.665 94.701 11.7133 96.7693 13.81C98.866 15.9067 99.9143 18.4992 99.9143 21.5875C99.9143 24.6758 98.866 27.2683 96.7693 29.365C94.701 31.4617 92.0943 32.51 88.9493 32.51ZM88.9493 25.965C90.111 25.965 91.0885 25.5683 91.8818 24.775C92.6752 23.9817 93.0718 22.9192 93.0718 21.5875C93.0718 20.2558 92.6752 19.1933 91.8818 18.4C91.0885 17.6067 90.111 17.21 88.9493 17.21C87.7593 17.21 86.7677 17.6067 85.9743 18.4C85.181 19.1933 84.7843 20.2558 84.7843 21.5875C84.7843 22.9192 85.181 23.9817 85.9743 24.775C86.7677 25.5683 87.7593 25.965 88.9493 25.965ZM104.177 32C103.723 32 103.497 31.7733 103.497 31.32V11.855C103.497 11.4017 103.723 11.175 104.177 11.175H109.787C110.212 11.175 110.424 11.4158 110.424 11.8975L110.594 13.98C111.926 11.77 113.867 10.665 116.417 10.665C119.052 10.665 120.978 11.8267 122.197 14.15C123.613 11.8267 125.738 10.665 128.572 10.665C130.867 10.665 132.666 11.43 133.969 12.96C135.272 14.4617 135.924 16.5725 135.924 19.2925V31.32C135.924 31.7733 135.697 32 135.244 32H129.464C129.011 32 128.784 31.7733 128.784 31.32V20.9925C128.784 18.4708 127.863 17.21 126.022 17.21C124.18 17.21 123.259 18.4708 123.259 20.9925V31.32C123.259 31.7733 123.032 32 122.579 32H116.884C116.374 32 116.119 31.7733 116.119 31.32V20.9925C116.119 18.4708 115.212 17.21 113.399 17.21C111.557 17.21 110.637 18.4708 110.637 20.9925V31.32C110.637 31.7733 110.41 32 109.957 32H104.177ZM141.203 40.075C140.75 40.075 140.523 39.8483 140.523 39.395V11.855C140.523 11.4017 140.75 11.175 141.203 11.175H146.473C146.926 11.175 147.153 11.4017 147.153 11.855L147.238 13.555C148.626 11.6283 150.709 10.665 153.486 10.665C156.319 10.665 158.642 11.7133 160.456 13.81C162.269 15.9067 163.176 18.4992 163.176 21.5875C163.176 24.7042 162.269 27.3108 160.456 29.4075C158.642 31.4758 156.319 32.51 153.486 32.51C151.106 32.51 149.179 31.7308 147.706 30.1725V39.395C147.706 39.8483 147.479 40.075 147.026 40.075H141.203ZM148.811 24.8175C149.604 25.6392 150.624 26.05 151.871 26.05C153.117 26.05 154.151 25.6392 154.973 24.8175C155.795 23.9958 156.206 22.9192 156.206 21.5875C156.206 20.2558 155.795 19.1792 154.973 18.3575C154.151 17.5358 153.117 17.125 151.871 17.125C150.596 17.125 149.561 17.5358 148.768 18.3575C148.003 19.1508 147.621 20.2133 147.621 21.545C147.621 22.905 148.017 23.9958 148.811 24.8175ZM175.386 32.51C172.553 32.51 170.229 31.4758 168.416 29.4075C166.603 27.3108 165.696 24.7042 165.696 21.5875C165.696 18.4992 166.603 15.9067 168.416 13.81C170.229 11.7133 172.553 10.665 175.386 10.665C178.163 10.665 180.245 11.6283 181.634 13.555L181.719 11.855C181.719 11.4017 181.945 11.175 182.399 11.175H187.669C188.122 11.175 188.349 11.4017 188.349 11.855V31.32C188.349 31.5183 188.278 31.6883 188.136 31.83C187.994 31.9433 187.824 32 187.626 32H182.399C181.945 32 181.719 31.7733 181.719 31.32L181.634 29.5775C180.132 31.5325 178.049 32.51 175.386 32.51ZM173.899 24.8175C174.72 25.6392 175.754 26.05 177.001 26.05C178.248 26.05 179.268 25.6392 180.061 24.8175C180.854 23.9958 181.251 22.905 181.251 21.545C181.251 20.2133 180.854 19.1508 180.061 18.3575C179.296 17.5358 178.276 17.125 177.001 17.125C175.754 17.125 174.72 17.5358 173.899 18.3575C173.077 19.1792 172.666 20.2558 172.666 21.5875C172.666 22.9192 173.077 23.9958 173.899 24.8175ZM193.674 32C193.221 32 192.994 31.7733 192.994 31.32V11.855C192.994 11.4017 193.221 11.175 193.674 11.175H199.284C199.709 11.175 199.921 11.4158 199.921 11.8975L200.134 14.235C201.466 11.855 203.449 10.665 206.084 10.665C208.294 10.665 210.093 11.4442 211.481 13.0025C212.898 14.5608 213.606 16.6575 213.606 19.2925V31.32C213.606 31.5183 213.536 31.6883 213.394 31.83C213.252 31.9433 213.082 32 212.884 32H207.146C206.693 32 206.466 31.7733 206.466 31.32V21.0775C206.466 18.4992 205.418 17.21 203.321 17.21C201.196 17.21 200.134 18.4992 200.134 21.0775V31.32C200.134 31.7733 199.907 32 199.454 32H193.674ZM220.783 40.075C220.159 40.075 219.975 39.82 220.23 39.31L223.29 32L215.215 11.8975C215.045 11.4158 215.229 11.175 215.768 11.175H221.675C222.072 11.175 222.341 11.345 222.483 11.685L226.733 23.67L231.025 11.685C231.139 11.345 231.408 11.175 231.833 11.175H237.74C238.25 11.175 238.42 11.4158 238.25 11.8975L227.243 39.565C227.101 39.905 226.832 40.075 226.435 40.075H220.783Z" fill="white"/>
</svg>
