<?xml version="1.0" standalone="no"?>
<!DOCTYPE svg PUBLIC "-//W3C//DTD SVG 20010904//EN"
 "http://www.w3.org/TR/2001/REC-SVG-20010904/DTD/svg10.dtd">
<svg version="1.0" xmlns="http://www.w3.org/2000/svg"
 width="400.000000pt" height="400.000000pt" viewBox="0 0 400.000000 400.000000"
 preserveAspectRatio="xMidYMid meet">

<g transform="translate(0.000000,400.000000) scale(0.100000,-0.100000)"
fill="#255DEF" stroke="none">
<path d="M1833 3574 c-228 -27 -476 -113 -658 -226 -356 -223 -616 -574 -719
-973 -111 -423 -42 -882 187 -1252 247 -398 642 -664 1112 -749 70 -12 150
-18 265 -18 184 0 298 16 465 66 556 165 992 634 1113 1199 74 339 40 681 -96
989 -212 480 -619 818 -1127 936 -93 21 -284 44 -365 43 -36 -1 -116 -7 -177
-15z m342 -668 c572 -101 921 -670 748 -1220 -159 -506 -705 -783 -1204 -612
-319 109 -548 363 -626 692 -22 95 -24 297 -4 389 57 259 197 465 416 609 196
129 444 182 670 142z"/>
<path d="M1742 2254 c-22 -15 -22 -18 -22 -283 0 -247 1 -269 18 -284 16 -15
51 -17 284 -17 244 0 266 1 281 18 15 16 17 51 17 284 0 244 -1 266 -18 281
-16 15 -51 17 -278 17 -219 0 -263 -2 -282 -16z"/>
</g>
</svg>
